<svg width="40" height="40" viewBox="0 0 40 40" fill="none" xmlns="http://www.w3.org/2000/svg">
<rect width="40" height="40" rx="6" fill="#141311"/>
<path d="M17 14H23C23 12.3432 21.6569 11 20 11C18.3431 11 17 12.3432 17 14ZM15 14C15 11.2386 17.2386 9 20 9C22.7614 9 25 11.2386 25 14H28C28.5523 14 29 14.4477 29 15V29C29 29.5523 28.5523 30 28 30H12C11.4477 30 11 29.5523 11 29V15C11 14.4477 11.4477 14 12 14H15ZM13 16V28H27V16H13ZM17 18C17 19.6569 18.3431 21 20 21C21.6569 21 23 19.6569 23 18H25C25 20.7614 22.7614 23 20 23C17.2386 23 15 20.7614 15 18H17Z" fill="white"/>
</svg>
