<svg width="24" height="24" viewBox="0 0 24 24" fill="none" xmlns="http://www.w3.org/2000/svg">
<rect x="0.5" y="0.5" width="23" height="23" rx="5.5" stroke="#BEBEBE"/>
<path d="M15.375 5.25C17.6532 5.25 19.5 7.125 19.5 9.75C19.5 15 13.875 18 12 19.125C10.125 18 4.5 15 4.5 9.75C4.5 7.125 6.375 5.25 8.625 5.25C10.02 5.25 11.25 6 12 6.75C12.75 6 13.98 5.25 15.375 5.25ZM12.7004 16.9529C13.3616 16.5364 13.9575 16.1216 14.5162 15.6772C16.7503 13.8998 18 11.9576 18 9.75C18 7.98057 16.8472 6.75 15.375 6.75C14.5681 6.75 13.6945 7.17683 13.0606 7.81066L12 8.87132L10.9394 7.81066C10.3055 7.17683 9.43192 6.75 8.625 6.75C7.1693 6.75 6 7.99238 6 9.75C6 11.9576 7.2497 13.8998 9.48385 15.6772C10.0425 16.1216 10.6384 16.5364 11.2996 16.9529C11.5234 17.0939 11.7458 17.2297 12 17.3814C12.2542 17.2297 12.4766 17.0939 12.7004 16.9529Z" fill="#3D3D3D"/>
</svg>
