<svg width="138" height="16" viewBox="0 0 138 16" fill="none" xmlns="http://www.w3.org/2000/svg">
<path d="M3.18 3.3V6.8H7.88V9.02H3.18V12.72H8.48V15H0.38V1.02H8.48V3.3H3.18ZM15.8445 15.14C14.8712 15.14 13.9912 14.9733 13.2045 14.64C12.4312 14.3067 11.8179 13.8267 11.3645 13.2C10.9112 12.5733 10.6779 11.8333 10.6645 10.98H13.6645C13.7045 11.5533 13.9045 12.0067 14.2645 12.34C14.6379 12.6733 15.1445 12.84 15.7845 12.84C16.4379 12.84 16.9512 12.6867 17.3245 12.38C17.6979 12.06 17.8845 11.6467 17.8845 11.14C17.8845 10.7267 17.7579 10.3867 17.5045 10.12C17.2512 9.85333 16.9312 9.64667 16.5445 9.5C16.1712 9.34 15.6512 9.16667 14.9845 8.98C14.0779 8.71333 13.3379 8.45333 12.7645 8.2C12.2045 7.93333 11.7179 7.54 11.3045 7.02C10.9045 6.48667 10.7045 5.78 10.7045 4.9C10.7045 4.07333 10.9112 3.35333 11.3245 2.74C11.7379 2.12667 12.3179 1.66 13.0645 1.34C13.8112 1.00667 14.6645 0.84 15.6245 0.84C17.0645 0.84 18.2312 1.19333 19.1245 1.9C20.0312 2.59333 20.5312 3.56667 20.6245 4.82H17.5445C17.5179 4.34 17.3112 3.94667 16.9245 3.64C16.5512 3.32 16.0512 3.16 15.4245 3.16C14.8779 3.16 14.4379 3.3 14.1045 3.58C13.7845 3.86 13.6245 4.26667 13.6245 4.8C13.6245 5.17333 13.7445 5.48667 13.9845 5.74C14.2379 5.98 14.5445 6.18 14.9045 6.34C15.2779 6.48667 15.7979 6.66 16.4645 6.86C17.3712 7.12667 18.1112 7.39333 18.6845 7.66C19.2579 7.92667 19.7512 8.32667 20.1645 8.86C20.5779 9.39333 20.7845 10.0933 20.7845 10.96C20.7845 11.7067 20.5912 12.4 20.2045 13.04C19.8179 13.68 19.2512 14.1933 18.5045 14.58C17.7579 14.9533 16.8712 15.14 15.8445 15.14ZM34.792 1.04V15H31.992V9.06H26.012V15H23.212V1.04H26.012V6.78H31.992V1.04H34.792ZM40.348 1.04V15H37.548V1.04H40.348ZM50.9944 15L45.9144 8.78V15H43.1144V1.04H45.9144V7.3L50.9944 1.04H54.3744L48.6144 7.96L54.5344 15H50.9944ZM66.0217 1.04C67.4884 1.04 68.7751 1.32667 69.8817 1.9C71.0017 2.47333 71.8617 3.29333 72.4617 4.36C73.0751 5.41333 73.3817 6.64 73.3817 8.04C73.3817 9.44 73.0751 10.6667 72.4617 11.72C71.8617 12.76 71.0017 13.5667 69.8817 14.14C68.7751 14.7133 67.4884 15 66.0217 15H61.1417V1.04H66.0217ZM65.9217 12.62C67.3884 12.62 68.5217 12.22 69.3217 11.42C70.1217 10.62 70.5217 9.49333 70.5217 8.04C70.5217 6.58667 70.1217 5.45333 69.3217 4.64C68.5217 3.81333 67.3884 3.4 65.9217 3.4H63.9417V12.62H65.9217ZM78.2777 3.3V6.8H82.9777V9.02H78.2777V12.72H83.5777V15H75.4777V1.02H83.5777V3.3H78.2777ZM93.3222 15L90.2422 9.56H88.9222V15H86.1222V1.04H91.3622C92.4422 1.04 93.3622 1.23333 94.1222 1.62C94.8822 1.99333 95.4489 2.50667 95.8222 3.16C96.2089 3.8 96.4022 4.52 96.4022 5.32C96.4022 6.24 96.1355 7.07333 95.6022 7.82C95.0689 8.55333 94.2755 9.06 93.2222 9.34L96.5622 15H93.3222ZM88.9222 7.46H91.2622C92.0222 7.46 92.5889 7.28 92.9622 6.92C93.3355 6.54667 93.5222 6.03333 93.5222 5.38C93.5222 4.74 93.3355 4.24667 92.9622 3.9C92.5889 3.54 92.0222 3.36 91.2622 3.36H88.9222V7.46ZM107.495 12.34H101.935L101.015 15H98.0747L103.095 1.02H106.355L111.375 15H108.415L107.495 12.34ZM106.735 10.1L104.715 4.26L102.695 10.1H106.735ZM116.111 12.64H122.391V15H112.871V12.84L119.111 3.4H112.871V1.04H122.391V3.2L116.111 12.64ZM133.335 12.34H127.775L126.855 15H123.915L128.935 1.02H132.195L137.215 15H134.255L133.335 12.34ZM132.575 10.1L130.555 4.26L128.535 10.1H132.575Z" fill="#141311"/>
</svg>
