<svg width="80" height="16" viewBox="0 0 80 16" fill="none" xmlns="http://www.w3.org/2000/svg">
<path d="M7.99991 11.3333L4.08135 13.7268L5.14675 9.2604L1.65955 6.27322L6.23657 5.90628L7.99991 1.66667L9.76331 5.90628L14.3403 6.27322L10.8531 9.2604L11.9185 13.7268L7.99991 11.3333Z" fill="#EDCF5D"/>
<path d="M23.9998 11.3333L20.0812 13.7268L21.1466 9.2604L17.6594 6.27322L22.2364 5.90628L23.9998 1.66667L25.7632 5.90628L30.3402 6.27322L26.853 9.2604L27.9184 13.7268L23.9998 11.3333Z" fill="#EDCF5D"/>
<path d="M39.9998 11.3333L36.0812 13.7268L37.1466 9.2604L33.6594 6.27322L38.2364 5.90628L39.9998 1.66667L41.7632 5.90628L46.3402 6.27322L42.853 9.2604L43.9184 13.7268L39.9998 11.3333Z" fill="#EDCF5D"/>
<path d="M55.9998 11.3333L52.0812 13.7268L53.1466 9.2604L49.6594 6.27322L54.2364 5.90628L55.9998 1.66667L57.7632 5.90628L62.3402 6.27322L58.853 9.2604L59.9184 13.7268L55.9998 11.3333Z" fill="#EDCF5D"/>
<path d="M71.9998 9.77093L73.8776 10.9179L73.3671 8.7776L75.0382 7.34613L72.8448 7.17027L71.9998 5.13861V9.77093ZM71.9998 11.3333L68.0812 13.7268L69.1466 9.2604L65.6594 6.27322L70.2364 5.90628L71.9998 1.66667L73.7632 5.90628L78.3402 6.27322L74.853 9.2604L75.9184 13.7268L71.9998 11.3333Z" fill="#EDCF5D"/>
</svg>
